<svg width="25" height="25" viewBox="0 0 25 25" fill="none" xmlns="http://www.w3.org/2000/svg">
<path d="M9.98 3.9688C8.28641 3.16021 5.91922 2.76411 2.75 2.75005C2.45111 2.74599 2.15809 2.83314 1.91 2.99989C1.70637 3.13753 1.53968 3.3231 1.4246 3.54028C1.30951 3.75745 1.24956 3.99958 1.25 4.24536V17.6563C1.25 18.5629 1.895 19.2468 2.75 19.2468C6.08141 19.2468 9.42313 19.558 11.4247 21.4499C11.4521 21.4759 11.4865 21.4933 11.5237 21.4999C11.5608 21.5065 11.5991 21.502 11.6338 21.487C11.6685 21.472 11.6979 21.4472 11.7186 21.4156C11.7393 21.384 11.7502 21.347 11.75 21.3093V5.50724C11.7501 5.40062 11.7273 5.29523 11.6831 5.19819C11.639 5.10115 11.5745 5.01472 11.4941 4.94474C11.0356 4.55278 10.5263 4.22451 9.98 3.9688ZM23.09 2.99849C22.8418 2.83215 22.5488 2.74548 22.25 2.75005C19.0808 2.76411 16.7136 3.15833 15.02 3.9688C14.4737 4.22405 13.9643 4.55168 13.5055 4.94286C13.4252 5.01296 13.3609 5.09943 13.3168 5.19645C13.2728 5.29347 13.25 5.3988 13.25 5.50536V21.3083C13.25 21.3446 13.2607 21.3801 13.2807 21.4103C13.3008 21.4406 13.3293 21.4642 13.3628 21.4783C13.3962 21.4923 13.4331 21.4962 13.4687 21.4894C13.5044 21.4826 13.5372 21.4654 13.5631 21.4401C14.7664 20.2447 16.8781 19.2454 22.2519 19.2458C22.6497 19.2458 23.0312 19.0878 23.3125 18.8065C23.5938 18.5252 23.7519 18.1437 23.7519 17.7458V4.24583C23.7524 3.99956 23.6923 3.75695 23.5769 3.5394C23.4615 3.32186 23.2942 3.13609 23.09 2.99849Z" fill="#4B4E62"/>
</svg>
