<svg width="25" height="25" viewBox="0 0 25 25" fill="none" xmlns="http://www.w3.org/2000/svg">
<path d="M4.25 5H2.75C2.33579 5 2 5.33579 2 5.75V21.5C2 21.9142 2.33579 22.25 2.75 22.25H4.25C4.66421 22.25 5 21.9142 5 21.5V5.75C5 5.33579 4.66421 5 4.25 5Z" stroke="#D1D3DD" stroke-width="1.5" stroke-linejoin="round"/>
<path d="M5.75 11H11.75M5.75 19.25H11.75" stroke="#D1D3DD" stroke-width="1.5" stroke-linecap="round" stroke-linejoin="round"/>
<path d="M11 8H6.5C6.08579 8 5.75 8.33579 5.75 8.75V21.5C5.75 21.9142 6.08579 22.25 6.5 22.25H11C11.4142 22.25 11.75 21.9142 11.75 21.5V8.75C11.75 8.33579 11.4142 8 11 8Z" stroke="#D1D3DD" stroke-width="1.5" stroke-linejoin="round"/>
<path d="M16.25 2.75H13.25C12.8358 2.75 12.5 3.08579 12.5 3.5V21.5C12.5 21.9142 12.8358 22.25 13.25 22.25H16.25C16.6642 22.25 17 21.9142 17 21.5V3.5C17 3.08579 16.6642 2.75 16.25 2.75Z" stroke="#D1D3DD" stroke-width="1.5" stroke-linejoin="round"/>
<path d="M20.3028 5.00518L18.4091 5.2044C17.8878 5.25924 17.51 5.74674 17.5686 6.28721L19.2055 21.3617C19.2645 21.9022 19.7384 22.2992 20.2597 22.2449L22.1534 22.0457C22.6747 21.9908 23.0525 21.5033 22.9939 20.9628L21.3594 5.89065C21.298 5.34784 20.8241 4.95034 20.3028 5.00518Z" stroke="#D1D3DD" stroke-width="1.5" stroke-linejoin="round"/>
</svg>
