<svg width="25" height="25" viewBox="0 0 25 25" fill="none" xmlns="http://www.w3.org/2000/svg">
<path d="M12.5 12.5C11.4 12.5 10.4583 12.1083 9.675 11.325C8.89167 10.5417 8.5 9.6 8.5 8.5C8.5 7.4 8.89167 6.45833 9.675 5.675C10.4583 4.89167 11.4 4.5 12.5 4.5C13.6 4.5 14.5417 4.89167 15.325 5.675C16.1083 6.45833 16.5 7.4 16.5 8.5C16.5 9.6 16.1083 10.5417 15.325 11.325C14.5417 12.1083 13.6 12.5 12.5 12.5ZM4.5 20.5V17.7C4.5 17.1333 4.646 16.6127 4.938 16.138C5.23 15.6633 5.61733 15.3007 6.1 15.05C7.13333 14.5333 8.18333 14.146 9.25 13.888C10.3167 13.63 11.4 13.5007 12.5 13.5C13.6 13.5 14.6833 13.6293 15.75 13.888C16.8167 14.1467 17.8667 14.534 18.9 15.05C19.3833 15.3 19.771 15.6627 20.063 16.138C20.355 16.6133 20.5007 17.134 20.5 17.7V20.5H4.5ZM6.5 18.5H18.5V17.7C18.5 17.5167 18.4543 17.35 18.363 17.2C18.2717 17.05 18.1507 16.9333 18 16.85C17.1 16.4 16.1917 16.0627 15.275 15.838C14.3583 15.6133 13.4333 15.5007 12.5 15.5C11.5667 15.5 10.6417 15.6127 9.725 15.838C8.80833 16.0633 7.9 16.4007 7 16.85C6.85 16.9333 6.729 17.05 6.637 17.2C6.545 17.35 6.49933 17.5167 6.5 17.7V18.5ZM12.5 10.5C13.05 10.5 13.521 10.3043 13.913 9.913C14.305 9.52167 14.5007 9.05067 14.5 8.5C14.5 7.95 14.3043 7.47933 13.913 7.088C13.5217 6.69667 13.0507 6.50067 12.5 6.5C11.95 6.5 11.4793 6.696 11.088 7.088C10.6967 7.48 10.5007 7.95067 10.5 8.5C10.5 9.05 10.696 9.521 11.088 9.913C11.48 10.305 11.9507 10.5007 12.5 10.5Z" fill="#D1D3DD"/>
</svg>
