<svg width="100" height="100" viewBox="0 0 100 100" fill="none" xmlns="http://www.w3.org/2000/svg">
<circle cx="50" cy="50" r="49.5" fill="white" stroke="#D1D3DD"/>
<path d="M49.9987 24C42.7737 24 36.8745 29.8434 36.8745 37C36.8745 44.1566 42.7737 50 49.9987 50C57.2235 50 63.1229 44.1566 63.1229 37C63.1229 29.8434 57.2235 24 49.9987 24ZM34.2215 55.2C31.3606 55.2 29 57.5384 29 60.3722V62.35C29 67.0355 31.9913 70.6599 35.9645 72.8311C39.9377 75.0026 44.9698 76 49.9987 76C55.0276 76 60.0597 75.0026 64.0329 72.8311C67.4205 70.9799 69.9703 68.0214 70.6848 64.3H71V60.3722C71 57.5384 68.6366 55.2 65.7758 55.2H34.2215Z" fill="url(#paint0_linear_34_5210)"/>
<defs>
<linearGradient id="paint0_linear_34_5210" x1="41.1935" y1="28.1053" x2="70.9165" y2="82.8874" gradientUnits="userSpaceOnUse">
<stop stop-color="#9896F1"/>
<stop offset="1" stop-color="#1C69FF"/>
</linearGradient>
</defs>
</svg>
