<svg width="10" height="10" viewBox="0 0 10 10" fill="none" xmlns="http://www.w3.org/2000/svg">
<g clip-path="url(#clip0_34_5372)">
<path d="M3.79806 -3.07802e-06C3.74224 0.00829803 3.68893 0.0287825 3.64191 0.0599969C3.64191 0.0599969 3.15537 0.366151 2.63229 0.697305C2.10921 1.02807 1.52729 1.39269 1.39421 1.46654C1.38601 1.4701 1.37792 1.47395 1.36998 1.47807C0.886907 1.77615 0.786522 2.26307 0.769214 2.53615C0.76806 2.54884 0.769214 2.55923 0.769214 2.57269C0.764984 2.675 0.769214 2.74077 0.769214 2.74077V7.765C0.769214 8.495 1.62037 8.84615 2.42806 8.84615C2.69729 8.84615 2.96652 8.80269 3.19729 8.72577C3.35114 8.64884 3.46152 8.495 3.46152 8.34115V4.30269C3.46152 3.41807 3.65383 3.00269 4.23075 2.65654C4.3846 2.57961 5.99768 1.46615 5.99768 1.46615C6.0746 1.38923 6.15383 1.23307 6.15383 1.11769V1.08154C6.15383 0.927689 6.07691 0.809997 5.96152 0.733074C5.84614 0.656151 5.69229 0.656151 5.57691 0.733074C5.53844 0.771535 3.19229 2.35115 2.69229 2.62038C2.19229 2.92807 1.72575 3.0023 1.61037 2.84846C1.5746 2.81269 1.54345 2.70307 1.53845 2.59615V2.57192C1.53883 2.4673 1.56575 2.27038 1.77883 2.13923C1.99498 2.01884 2.53152 1.67615 3.05306 1.34615C3.27345 1.20654 3.30075 1.19154 3.47345 1.08154C3.49618 1.17549 3.55346 1.25745 3.63389 1.31108C3.71431 1.36471 3.81199 1.38609 3.90747 1.37096C4.00295 1.35584 4.08923 1.30531 4.14913 1.22944C4.20904 1.15357 4.23818 1.05792 4.23075 0.961535V0.384612C4.23118 0.329791 4.21989 0.275511 4.19763 0.225412C4.17536 0.175313 4.14265 0.130551 4.10167 0.0941291C4.0607 0.0577067 4.01241 0.030465 3.96005 0.0142301C3.90768 -0.0020048 3.85245 -0.00685763 3.79806 -3.07802e-06ZM6.87498 1.34615C6.81382 1.35632 6.75603 1.38113 6.70652 1.41846C6.70652 1.41846 4.77037 2.72115 4.43498 2.94461C4.43092 2.94863 4.42694 2.95273 4.42306 2.95692C4.1446 3.16577 3.9796 3.41423 3.90614 3.64154C3.86498 3.76977 3.84472 3.90379 3.84614 4.03846V4.15884C3.84558 4.17076 3.84558 4.1827 3.84614 4.19461V8.84615C3.84614 9.57692 4.68768 10 5.45691 10C5.80306 10 6.11537 9.92538 6.34614 9.77153C6.80768 9.5023 9.03845 7.76461 9.03845 7.76461C9.15383 7.68769 9.23075 7.57923 9.23075 7.46384V2.46384C9.23075 2.27154 9.15614 2.15615 9.00229 2.07923C8.88691 2.0023 8.69729 2.03846 8.58191 2.11538C7.96652 2.57692 6.30998 3.88 5.92537 4.11077C5.38691 4.41846 4.8796 4.49538 4.68729 4.30307C4.61037 4.22615 4.61537 4.15384 4.61537 4.03846C4.61768 3.9723 4.62498 3.91538 4.6396 3.87C4.66114 3.80307 4.70498 3.72077 4.86768 3.59384C4.87537 3.58769 4.87152 3.58807 4.8796 3.58192C5.15768 3.39615 6.00806 2.81654 6.56268 2.43961C6.5941 2.52391 6.65407 2.59452 6.73217 2.63917C6.81027 2.68382 6.90155 2.69968 6.99013 2.684C7.07871 2.66831 7.159 2.62207 7.21701 2.55332C7.27503 2.48456 7.30711 2.39765 7.30768 2.30769V1.73077C7.30811 1.67594 7.29681 1.62167 7.27455 1.57157C7.25229 1.52147 7.21957 1.47671 7.1786 1.44028C7.13762 1.40386 7.08933 1.37662 7.03697 1.36038C6.98461 1.34415 6.92938 1.3393 6.87498 1.34615ZM8.46152 4.15884V4.92807L6.53844 6.41807V5.64884L8.46152 4.15884Z" fill="#A6ABC0"/>
</g>
<defs>
<clipPath id="clip0_34_5372">
<rect width="10" height="10" fill="white"/>
</clipPath>
</defs>
</svg>
