<svg width="20" height="20" viewBox="0 0 20 20" fill="none" xmlns="http://www.w3.org/2000/svg">
<path d="M4.91667 11.8378H14.0833V10.9009H4.91667V11.8378ZM4.91667 9.027H14.0833V8.09006H4.91667V9.027ZM4.91667 6.2162H14.0833V5.27926H4.91667V6.2162ZM17 18L14.4358 15.1171H3.34583C2.9625 15.1171 2.6425 14.9728 2.38583 14.6842C2.12861 14.395 2 14.0349 2 13.6039V3.51315C2 3.08216 2.12861 2.72238 2.38583 2.4338C2.6425 2.1446 2.9625 2 3.34583 2H15.6542C16.0375 2 16.3575 2.1446 16.6142 2.4338C16.8714 2.72238 17 3.08216 17 3.51315V18ZM3.34583 14.1801H14.7917L16.1667 15.7204V3.51315C16.1667 3.36948 16.1133 3.23738 16.0067 3.11682C15.8994 2.9969 15.7819 2.93693 15.6542 2.93693H3.34583C3.21806 2.93693 3.10056 2.9969 2.99333 3.11682C2.88667 3.23738 2.83333 3.36948 2.83333 3.51315V13.6039C2.83333 13.7476 2.88667 13.8797 2.99333 14.0002C3.10056 14.1202 3.21806 14.1801 3.34583 14.1801Z" fill="black"/>
</svg>
