<svg width="19" height="19" viewBox="0 0 19 19" fill="none" xmlns="http://www.w3.org/2000/svg">
<path d="M4.55208 2.375C3.35676 2.375 2.375 3.35676 2.375 4.55208V14.4479C2.375 15.6432 3.35676 16.625 4.55208 16.625H11.6771C12.8724 16.625 13.8542 15.6432 13.8542 14.4479C13.8553 14.3692 13.8407 14.2911 13.8114 14.2181C13.7821 14.1451 13.7385 14.0786 13.6833 14.0226C13.628 13.9666 13.5622 13.9221 13.4896 13.8917C13.417 13.8614 13.3391 13.8457 13.2604 13.8457C13.1817 13.8457 13.1038 13.8614 13.0312 13.8917C12.9586 13.9221 12.8928 13.9666 12.8376 14.0226C12.7823 14.0786 12.7388 14.1451 12.7094 14.2181C12.6801 14.2911 12.6656 14.3692 12.6667 14.4479C12.6667 15.0014 12.2305 15.4375 11.6771 15.4375H4.55208C3.99862 15.4375 3.5625 15.0014 3.5625 14.4479V4.55208C3.5625 3.99862 3.99862 3.5625 4.55208 3.5625H11.6771C12.2305 3.5625 12.6667 3.99862 12.6667 4.55208C12.6656 4.63076 12.6801 4.70888 12.7094 4.78189C12.7388 4.8549 12.7823 4.92136 12.8376 4.97739C12.8928 5.03342 12.9586 5.07791 13.0312 5.10828C13.1038 5.13865 13.1817 5.15429 13.2604 5.15429C13.3391 5.15429 13.417 5.13865 13.4896 5.10828C13.5622 5.07791 13.628 5.03342 13.6833 4.97739C13.7385 4.92136 13.7821 4.8549 13.8114 4.78189C13.8407 4.70888 13.8553 4.63076 13.8542 4.55208C13.8542 3.35676 12.8724 2.375 11.6771 2.375H4.55208ZM13.2542 6.12923C13.1361 6.12926 13.0206 6.16454 12.9226 6.23057C12.8246 6.29659 12.7485 6.39035 12.7041 6.49985C12.6597 6.60935 12.649 6.72961 12.6733 6.84524C12.6976 6.96088 12.7559 7.06663 12.8406 7.14897L14.5979 8.90625H6.13542C6.05674 8.90514 5.97862 8.91967 5.90561 8.94901C5.8326 8.97835 5.76614 9.02191 5.71011 9.07716C5.65408 9.1324 5.60959 9.19823 5.57922 9.27082C5.54885 9.34341 5.53321 9.42131 5.53321 9.5C5.53321 9.57869 5.54885 9.65659 5.57922 9.72918C5.60959 9.80177 5.65408 9.8676 5.71011 9.92284C5.76614 9.97809 5.8326 10.0216 5.90561 10.051C5.97862 10.0803 6.05674 10.0949 6.13542 10.0938H14.5979L12.8406 11.851C12.7836 11.9057 12.7381 11.9713 12.7068 12.0438C12.6755 12.1163 12.6589 12.1943 12.6581 12.2733C12.6573 12.3523 12.6723 12.4307 12.7021 12.5038C12.732 12.577 12.7761 12.6434 12.832 12.6993C12.8879 12.7551 12.9543 12.7993 13.0274 12.8291C13.1006 12.859 13.1789 12.874 13.2579 12.8731C13.3369 12.8723 13.4149 12.8558 13.4875 12.8244C13.56 12.7931 13.6255 12.7476 13.6802 12.6906L16.451 9.9198C16.5624 9.80845 16.6249 9.65745 16.6249 9.5C16.6249 9.34255 16.5624 9.19155 16.451 9.0802L13.6802 6.30937C13.6249 6.25237 13.5587 6.20706 13.4855 6.17612C13.4123 6.14518 13.3337 6.12924 13.2542 6.12923Z" fill="#FF0000"/>
</svg>
