<svg width="20" height="20" viewBox="0 0 20 20" fill="none" xmlns="http://www.w3.org/2000/svg">
<g clip-path="url(#clip0_61_556)">
<path d="M5.20825 1.66666C4.17492 1.66666 3.33325 2.50832 3.33325 3.54166V16.4583C3.33325 17.4917 4.17492 18.3333 5.20825 18.3333H14.7916C15.8249 18.3333 16.6666 17.4917 16.6666 16.4583V12.1623L15.4166 13.4123V16.4583C15.4166 16.8042 15.1374 17.0833 14.7916 17.0833H5.20825C4.86242 17.0833 4.58325 16.8042 4.58325 16.4583V3.54166C4.58325 3.19582 4.86242 2.91666 5.20825 2.91666H9.99992V6.45832C9.99992 7.49166 10.8416 8.33332 11.8749 8.33332H12.8376L14.0876 7.08332H11.8749C11.5291 7.08332 11.2499 6.80416 11.2499 6.45832V3.80045L14.3123 6.86278L14.925 6.24592C15.0167 6.15425 15.1123 6.07108 15.2123 5.99608L11.0668 1.84976C10.9543 1.73726 10.7999 1.66666 10.6249 1.66666H5.20825ZM18.317 5.82519C18.1005 5.83164 17.895 5.92212 17.7441 6.07746L17.4682 6.35334C17.2053 6.26683 16.9315 6.23588 16.6633 6.26952C16.2372 6.32297 15.8291 6.51942 15.5159 6.83267C15.5156 6.83267 15.5153 6.83267 15.5151 6.83267L11.5291 10.8195C11.3607 10.9878 11.2361 11.1942 11.1661 11.4217C11.1661 11.422 11.1661 11.4222 11.1661 11.4225L10.4443 13.7752C10.4111 13.8837 10.4081 13.9991 10.4355 14.1091C10.463 14.2192 10.5199 14.3197 10.6 14.3999C10.6802 14.4801 10.7807 14.5369 10.8908 14.5644C11.0008 14.5918 11.1162 14.5888 11.2247 14.5557L13.5774 13.8338C13.5777 13.8338 13.5779 13.8338 13.5782 13.8338C13.8057 13.7638 14.0121 13.6392 14.1804 13.4709L18.2006 9.45067C18.7146 8.93704 18.8567 8.18577 18.6441 7.53417L18.9224 7.25585C19.0429 7.1388 19.1251 6.9881 19.1584 6.8235C19.1917 6.6589 19.1745 6.48808 19.1091 6.33342C19.0436 6.17877 18.933 6.04749 18.7916 5.9568C18.6503 5.86611 18.4848 5.82024 18.317 5.82519ZM16.8057 7.51301C16.9521 7.49271 17.0988 7.52076 17.2159 7.60009C17.2531 7.62526 17.2844 7.65342 17.3144 7.68228C17.3234 7.69145 17.3326 7.7004 17.342 7.70914C17.5777 7.96256 17.5578 8.32605 17.3168 8.56688L13.2966 12.5871C13.2724 12.6113 13.2429 12.6291 13.2104 12.6392L11.9848 13.0151L12.3608 11.7895C12.3708 11.757 12.3887 11.7275 12.4128 11.7033L16.3997 7.71646C16.5139 7.60221 16.6594 7.53331 16.8057 7.51301ZM7.29158 10.4167C6.94575 10.4167 6.66658 10.6958 6.66658 11.0417C6.66658 11.3875 6.94575 11.6667 7.29158 11.6667H10.2205L10.371 11.1792C10.4543 10.9 10.5913 10.6417 10.7747 10.4167H7.29158ZM7.29158 13.3333C6.94575 13.3333 6.66658 13.6125 6.66658 13.9583C6.66658 14.3042 6.94575 14.5833 7.29158 14.5833H9.72485C9.57069 14.2583 9.53758 13.8836 9.64591 13.5295L9.70858 13.3333H7.29158Z" fill="black"/>
</g>
<defs>
<clipPath id="clip0_61_556">
<rect width="20" height="20" fill="white"/>
</clipPath>
</defs>
</svg>
