<svg width="19" height="19" viewBox="0 0 19 19" fill="none" xmlns="http://www.w3.org/2000/svg">
<path d="M16.8707 5.44543L13.5546 2.12859C13.4443 2.01829 13.3134 1.9308 13.1693 1.8711C13.0252 1.81141 12.8708 1.78069 12.7148 1.78069C12.5588 1.78069 12.4044 1.81141 12.2603 1.8711C12.1162 1.9308 11.9853 2.01829 11.875 2.12859L2.72309 11.2812C2.61234 11.3911 2.52454 11.5219 2.46478 11.666C2.40502 11.8101 2.37451 11.9647 2.37501 12.1207V15.4375C2.37501 15.7524 2.50012 16.0545 2.72282 16.2772C2.94552 16.4999 3.24756 16.625 3.56251 16.625H6.87934C7.03534 16.6255 7.18989 16.595 7.33399 16.5352C7.4781 16.4755 7.60889 16.3877 7.71876 16.2769L16.8707 7.125C16.981 7.01473 17.0685 6.8838 17.1282 6.73971C17.1879 6.59562 17.2186 6.44118 17.2186 6.28521C17.2186 6.12925 17.1879 5.97481 17.1282 5.83071C17.0685 5.68662 16.981 5.5557 16.8707 5.44543ZM3.80817 11.875L10.0938 5.58941L11.3325 6.82812L5.04688 13.113L3.80817 11.875ZM3.56251 13.3082L5.69184 15.4375H3.56251V13.3082ZM7.12501 15.1918L5.8863 13.9531L12.1719 7.66754L13.4106 8.90625L7.12501 15.1918ZM14.25 8.06683L10.9332 4.75L12.7144 2.96875L16.0313 6.28484L14.25 8.06683Z" fill="black"/>
</svg>
